<svg id="Layer_1" data-name="Layer 1" xmlns="http://www.w3.org/2000/svg" viewBox="0 0 95.17 95.17"><defs><style>.cls-1{fill:#4678b2;}.cls-2{fill:#94b743;}.cls-3{fill:#262a51;}</style></defs><title>hoa-header-vector</title><path class="cls-1" d="M96.29,260.36s55.1,0,73.51,0c3.94,0,7.88,3.94,7.88,7.88v25.53l-34-19.33L120.2,287.57v-9.19H91.85v25l-9.34,5.23V268.24c0-3.94,3.95-7.88,7.89-7.88Z" transform="translate(-82.51 -260.36)"/><path class="cls-2" d="M82.51,334.33l19.24-10.76L133,341.33V326h13v22.74L158,355.53H98.09s-2.27,0-7.69,0c-3.94,0-7.89-3.92-7.89-7.86Z" transform="translate(-82.51 -260.36)"/><path class="cls-3" d="M153.66,344.23v-26H125.31v9.85l-23.56-13.38L82.51,325.5v-8l17-9.54V286.09h12.93v14.62l31.18-17.44,34,19.33v45c0,3-2.32,6.05-5.19,7.29Z" transform="translate(-82.51 -260.36)"/></svg>