<svg id="Layer_1" data-name="Layer 1" xmlns="http://www.w3.org/2000/svg" viewBox="0 0 256 256"><defs><style>.cls-1{fill:#fff;}.cls-2{fill:#4879b8;}.cls-3{fill:#8aba27;}.cls-4{fill:#2b2c56;}</style></defs><title>hoa-icon-white-back-full-corners</title><rect class="cls-1" width="256" height="256" rx="32"/><polygon class="cls-2" points="256 0 256 89.58 164.74 37.72 101.36 73.74 101.36 48.46 25.21 48.46 25.21 117.02 0 131.34 0 0 256 0"/><polygon class="cls-3" points="0 199.42 51.75 170.01 135.77 217.76 135.77 176.41 170.64 176.41 170.64 237.57 203.06 256 0 256 0 199.42"/><polyline class="cls-4" points="191.28 225.56 191.28 155.77 115.12 155.77 115.12 182.28 51.75 146.27 0 175.67 0 155.09 45.85 129.03 45.85 69.11 80.72 69.11 80.72 109.21 164.74 61.47 256 113.33 256 256 244.85 256 191.28 225.56"/></svg>