<svg id="Layer_1" data-name="Layer 1" xmlns="http://www.w3.org/2000/svg" viewBox="0 0 256 256"><defs><style>.cls-1{fill:#fff;}</style></defs><title>hoa-icon-white</title><path class="cls-1" d="M256,30V89.58L164.74,37.72l-63.38,36V48.46H25.21V117L0,131.34V30A30,30,0,0,1,30,0H226A30,30,0,0,1,256,30Z" transform="translate(0 0)"/><path class="cls-1" d="M0,199.42,51.75,170l84,47.75V176.41h34.87v61.16L203.06,256H30A30,30,0,0,1,0,226Z" transform="translate(0 0)"/><path class="cls-1" d="M191.28,225.56V155.77H115.12v26.51l-63.37-36L0,175.67V155.08L45.85,129V69.11H80.72v40.1l84-47.74L256,113.32V226a30,30,0,0,1-16.65,26.87" transform="translate(0 0)"/></svg>